name ./resultDataOpenSim/trcMotMarkerGrf/sub06/grf-15-01.mot
datacolumns 19
datarows 22
range 0.51200000 0.59600000
endheader

                time	     ground_force_vx	     ground_force_vy	     ground_force_vz	     ground_force_px	     ground_force_py	     ground_force_pz	   l_ground_force_vx	   l_ground_force_vy	   l_ground_force_vz	   l_ground_force_px	   l_ground_force_py	   l_ground_force_pz	     ground_torque_x	     ground_torque_y	     ground_torque_z	   l_ground_torque_x	   l_ground_torque_y	   l_ground_torque_z	
          0.51200000	        204.61919537	        811.81270447	        -49.40210925	         -0.72905126	          0.00000000	          0.13273834	          0.00000000	          0.00000000	          0.00000000	          0.00000000	          0.00000000	          0.00000000	          0.00000000	          1.87379623	          0.00000000	          0.00000000	          0.00000000	          0.00000000	
          0.51600000	        214.47010649	        818.01651271	        -50.06940626	         -0.72884411	          0.00000000	          0.13261920	          0.00000000	          0.00000000	          0.00000000	          0.00000000	          0.00000000	          0.00000000	          0.00000000	          1.68891185	          0.00000000	          0.00000000	          0.00000000	          0.00000000	
          0.52000000	        224.03947310	        821.70797236	        -50.41190939	         -0.72871649	          0.00000000	          0.13247458	          0.00000000	          0.00000000	          0.00000000	          0.00000000	          0.00000000	          0.00000000	          0.00000000	          1.50544438	          0.00000000	          0.00000000	          0.00000000	          0.00000000	
          0.52400000	        233.24234754	        822.68003278	        -50.47825542	         -0.72863138	          0.00000000	          0.13232502	          0.00000000	          0.00000000	          0.00000000	          0.00000000	          0.00000000	          0.00000000	          0.00000000	          1.31479210	          0.00000000	          0.00000000	          0.00000000	          0.00000000	
          0.52800000	        241.99396352	        820.74552985	        -50.34096454	         -0.72855003	          0.00000000	          0.13218695	          0.00000000	          0.00000000	          0.00000000	          0.00000000	          0.00000000	          0.00000000	          0.00000000	          1.10629166	          0.00000000	          0.00000000	          0.00000000	          0.00000000	
          0.53200000	        250.23948189	        815.82956983	        -50.07314370	         -0.72847906	          0.00000000	          0.13205491	          0.00000000	          0.00000000	          0.00000000	          0.00000000	          0.00000000	          0.00000000	          0.00000000	          0.87065379	          0.00000000	          0.00000000	          0.00000000	          0.00000000	
          0.53600000	        257.93864262	        807.95308405	        -49.72519833	         -0.72845821	          0.00000000	          0.13191113	          0.00000000	          0.00000000	          0.00000000	          0.00000000	          0.00000000	          0.00000000	          0.00000000	          0.60269816	          0.00000000	          0.00000000	          0.00000000	          0.00000000	
          0.54000000	        265.02132992	        797.14608617	        -49.30183042	         -0.72852033	          0.00000000	          0.13174224	          0.00000000	          0.00000000	          0.00000000	          0.00000000	          0.00000000	          0.00000000	          0.00000000	          0.30276472	          0.00000000	          0.00000000	          0.00000000	          0.00000000	
          0.54400000	        271.36307826	        783.37490252	        -48.74770009	         -0.72867072	          0.00000000	          0.13154720	          0.00000000	          0.00000000	          0.00000000	          0.00000000	          0.00000000	          0.00000000	          0.00000000	         -0.02335844	          0.00000000	          0.00000000	          0.00000000	          0.00000000	
          0.54800000	        276.79699679	        766.50798072	        -47.96253916	         -0.72889677	          0.00000000	          0.13133579	          0.00000000	          0.00000000	          0.00000000	          0.00000000	          0.00000000	          0.00000000	          0.00000000	         -0.36568893	          0.00000000	          0.00000000	          0.00000000	          0.00000000	
          0.55200000	        281.14234759	        746.29943867	        -46.84513318	         -0.72918494	          0.00000000	          0.13112621	          0.00000000	          0.00000000	          0.00000000	          0.00000000	          0.00000000	          0.00000000	          0.00000000	         -0.71181902	          0.00000000	          0.00000000	          0.00000000	          0.00000000	
          0.55600000	        284.21683541	        722.39716917	        -45.32085488	         -0.72951664	          0.00000000	          0.13094939	          0.00000000	          0.00000000	          0.00000000	          0.00000000	          0.00000000	          0.00000000	          0.00000000	         -1.04842009	          0.00000000	          0.00000000	          0.00000000	          0.00000000	
          0.56000000	        285.79895767	        694.43747726	        -43.32669124	         -0.72985003	          0.00000000	          0.13084412	          0.00000000	          0.00000000	          0.00000000	          0.00000000	          0.00000000	          0.00000000	          0.00000000	         -1.36200975	          0.00000000	          0.00000000	          0.00000000	          0.00000000	
          0.56400000	        285.56422654	        662.22889975	        -40.79830763	         -0.73014107	          0.00000000	          0.13082090	          0.00000000	          0.00000000	          0.00000000	          0.00000000	          0.00000000	          0.00000000	          0.00000000	         -1.63913292	          0.00000000	          0.00000000	          0.00000000	          0.00000000	
          0.56800000	        283.08102313	        625.86102750	        -37.69959447	         -0.73040503	          0.00000000	          0.13082693	          0.00000000	          0.00000000	          0.00000000	          0.00000000	          0.00000000	          0.00000000	          0.00000000	         -1.86646415	          0.00000000	          0.00000000	          0.00000000	          0.00000000	
          0.57200000	        277.86926019	        585.59324096	        -34.05606500	         -0.73071882	          0.00000000	          0.13078064	          0.00000000	          0.00000000	          0.00000000	          0.00000000	          0.00000000	          0.00000000	          0.00000000	         -2.03093633	          0.00000000	          0.00000000	          0.00000000	          0.00000000	
          0.57600000	        269.42919998	        541.67315577	        -29.93876758	         -0.73109394	          0.00000000	          0.13066752	          0.00000000	          0.00000000	          0.00000000	          0.00000000	          0.00000000	          0.00000000	          0.00000000	         -2.11940608	          0.00000000	          0.00000000	          0.00000000	          0.00000000	
          0.58000000	        257.24940283	        494.39730111	        -25.43308260	         -0.73131660	          0.00000000	          0.13058892	          0.00000000	          0.00000000	          0.00000000	          0.00000000	          0.00000000	          0.00000000	          0.00000000	         -2.11775339	          0.00000000	          0.00000000	          0.00000000	          0.00000000	
          0.58400000	        240.92986442	        444.46103400	        -20.65586999	         -0.73099738	          0.00000000	          0.13068306	          0.00000000	          0.00000000	          0.00000000	          0.00000000	          0.00000000	          0.00000000	          0.00000000	         -2.01072632	          0.00000000	          0.00000000	          0.00000000	          0.00000000	
          0.58800000	        220.44470644	        393.24671556	        -15.78982068	         -0.72983673	          0.00000000	          0.13097329	          0.00000000	          0.00000000	          0.00000000	          0.00000000	          0.00000000	          0.00000000	          0.00000000	         -1.78468205	          0.00000000	          0.00000000	          0.00000000	          0.00000000	
          0.59200000	        196.34911126	        342.65650063	        -11.06619056	         -0.72785129	          0.00000000	          0.13129455	          0.00000000	          0.00000000	          0.00000000	          0.00000000	          0.00000000	          0.00000000	          0.00000000	         -1.43414946	          0.00000000	          0.00000000	          0.00000000	          0.00000000	
          0.59600000	        169.75427999	        294.50413397	         -6.71106972	         -0.72525628	          0.00000000	          0.13140476	          0.00000000	          0.00000000	          0.00000000	          0.00000000	          0.00000000	          0.00000000	          0.00000000	         -0.97031298	          0.00000000	          0.00000000	          0.00000000	          0.00000000	
